# xmcd
#
# Track frame offsets:
#	150
#	28312
#	39977
#	58127
#	74552
#	100265
#	123040
#	138180
#	162597
#	180040
#	199547
#	219295
#	238222
#	261215
#
# Disc length: 3711 seconds
#
# Revision: 2
# Processed by: cddbd v1.5.1PL0 Copyright (c) Steve Scherf et al.
# Submitted via: audiograbber 1.80
#
DISCID=c40e7d0e
DTITLE=Monokel - Monokel
DYEAR=1995
DGENRE=Blues
TTITLE0=Nie wie Vater
TTITLE1=Spanner
TTITLE2=Sorgenfrei
TTITLE3=Wie die Grossen
TTITLE4=Schweine nach vorn
TTITLE5=Wolf
TTITLE6=Mundgeruch
TTITLE7=Mitternacht
TTITLE8=Bleib weg
TTITLE9=Rettungsboot
TTITLE10=Die fünfte Jahreszeit
TTITLE11=Bla bla bei Nacht
TTITLE12=Emil
TTITLE13=Demoversion
EXTD=YEAR: 1995
EXTT0=
EXTT1=
EXTT2=
EXTT3=
EXTT4=
EXTT5=
EXTT6=
EXTT7=
EXTT8=
EXTT9=
EXTT10=
EXTT11=
EXTT12=
EXTT13=
PLAYORDER=
